<svg xmlns="http://www.w3.org/2000/svg" viewBox="0 0 83.14 112.95"><defs><style>.cls-1{fill:#f9cdb7;}.cls-2{fill:#e2a78d;}.cls-3{fill:#213346;}.cls-4{fill:#bfe1ee;}.cls-5{fill:#dfe7ea;}.cls-6{fill:#e99a4f;}.cls-7{fill:#ce7149;}.cls-8,.cls-9{fill:#fff;}.cls-9{opacity:0.5;isolation:isolate;}</style></defs><title>Asset 2</title><g id="Layer_2" data-name="Layer 2"><g id="Layer_3" data-name="Layer 3"><g id="Layer_1-2" data-name="Layer 1-2"><circle class="cls-1" cx="73.4" cy="58.47" r="8.78"/><path class="cls-2" d="M70.77,66.27a8.78,8.78,0,1,0,0-16.88,8.79,8.79,0,0,1,0,16.88Z"/><circle class="cls-1" cx="9.74" cy="58.47" r="8.78"/><path class="cls-2" d="M11.76,66.69a8.78,8.78,0,1,1,0-16.88,8.79,8.79,0,0,0,0,16.88Z"/><path class="cls-3" d="M9.74,67.9a9.74,9.74,0,1,1,9.74-9.74h0A9.76,9.76,0,0,1,9.74,67.9Zm0-17.57a7.83,7.83,0,1,0,7.83,7.84h0a7.85,7.85,0,0,0-7.83-7.83Z"/><path class="cls-3" d="M4.52,59.61h-.1a.74.74,0,0,1-.64-.82c.37-3.06,1.68-4.58,2.7-5.31a4.65,4.65,0,0,1,2.31-.88.76.76,0,0,1,.78.72.75.75,0,0,1-.72.77h0c-.14,0-3,.23-3.6,4.88A.73.73,0,0,1,4.52,59.61Z"/><path class="cls-3" d="M7.14,61.14a.5.5,0,0,1-.17,0,.73.73,0,0,1-.55-.89h0a6.8,6.8,0,0,0,.21-2.46,3.12,3.12,0,0,0-.93-2,.75.75,0,0,1-.09-1,.76.76,0,0,1,1-.09l0,0A4.54,4.54,0,0,1,8.1,57.59a8.32,8.32,0,0,1-.24,3A.75.75,0,0,1,7.14,61.14Z"/><path class="cls-3" d="M73.4,67.9a9.74,9.74,0,1,1,9.74-9.74h0A9.76,9.76,0,0,1,73.4,67.9Zm0-17.57a7.83,7.83,0,1,0,7.83,7.84h0a7.85,7.85,0,0,0-7.83-7.83Z"/><path class="cls-3" d="M78.62,59.61a.74.74,0,0,1-.73-.65c-.57-4.65-3.48-4.88-3.61-4.88a.75.75,0,0,1-.71-.77.74.74,0,0,1,.77-.71h0a4.56,4.56,0,0,1,2.31.88c1,.73,2.33,2.24,2.7,5.3a.73.73,0,0,1-.63.83Z"/><path class="cls-3" d="M76,61.14a.72.72,0,0,1-.72-.57,8.1,8.1,0,0,1-.25-3,4.54,4.54,0,0,1,1.42-2.88.74.74,0,0,1,1,.06.75.75,0,0,1-.06,1,3.08,3.08,0,0,0-.94,2,7,7,0,0,0,.21,2.46.73.73,0,0,1-.55.89A.44.44,0,0,1,76,61.14Z"/><path class="cls-1" d="M41.71,12.93h.59a31,31,0,0,1,31,31h0V64.09A31.28,31.28,0,0,1,42,95.4h0a31.29,31.29,0,0,1-31.3-31.29V44a31,31,0,0,1,31-31Z"/><path class="cls-2" d="M46,94.77a30.86,30.86,0,0,1-4.3.3,31.39,31.39,0,0,1-31.3-31.3V43.19A30.68,30.68,0,0,1,41,12.6h1.41a31.08,31.08,0,0,1,3.61.21c-13.68,1.63-25.53,14.09-27.7,28a108.82,108.82,0,0,1-2.83,13.13l-2.83,9.85C12.63,79.53,30.78,92.66,46,94.77Z"/><path class="cls-3" d="M41.68,96.36A32.34,32.34,0,0,1,9.43,64.11V43.94a32,32,0,0,1,32-32H42a32.05,32.05,0,0,1,32,32V64.11A32.34,32.34,0,0,1,41.68,96.36Zm-.3-82.47A30.14,30.14,0,0,0,11.33,43.94V64.11A30.44,30.44,0,0,0,41.68,94.45h0A30.44,30.44,0,0,0,72,64.11V43.94a30.14,30.14,0,0,0-30-30Z"/><path class="cls-4" d="M70.12,58.87v0C70,58.92,70.05,58.89,70.12,58.87Z"/><ellipse class="cls-5" cx="40.24" cy="100" rx="38.14" ry="11.22"/><path class="cls-6" d="M72.3,69.07c4.49,8.19,3.06,16.17,3.22,23.79l-2.43-2.69a26.19,26.19,0,0,1-6.38,12.73,9.29,9.29,0,0,0-2.95-3.25A19.74,19.74,0,0,1,57.67,110a7.92,7.92,0,0,0-.22-6.55,12.52,12.52,0,0,1-6.82,7.59,5.15,5.15,0,0,0,.56-5c-2.48,4.2-9.59,4.33-12.21.22-.18.83,0,1.92.8,2a10.41,10.41,0,0,1-9.28-3.6,6,6,0,0,0,2,3.89,10.89,10.89,0,0,1-9.06-6,10.71,10.71,0,0,1-10.58-7.26,2.22,2.22,0,0,1-.58,2.11C4.33,93.4,4.75,75.32,10,69.35c0,0,11,1.75,17.61,6.8,4.24,3.22,11.56-4.1,17.74-4.12,5.18,0,7.95,6.54,11.27,3.43C65.36,67.21,72.23,68.93,72.3,69.07Z"/><path class="cls-7" d="M75.83,91.91,73.4,89.22A26.18,26.18,0,0,1,67,102a9.29,9.29,0,0,0-3-3.25A19.74,19.74,0,0,1,58,109.08a8,8,0,0,0-.22-6.55,12.53,12.53,0,0,1-6.83,7.58,5.15,5.15,0,0,0,.56-5c-2.48,4.2-9.59,4.33-12.21.22-.19.83,0,3.88.87,4-3.56.55-6.9-2.91-9.35-5.56.14,1.49.51,4.16,1.63,5.14-3.8-.19-7-3.84-8.7-7.27a10.73,10.73,0,0,1-10.59-7.26,2.19,2.19,0,0,1-.57,2.11C9.83,95.1,8,92.08,7,88.45a50.67,50.67,0,0,0,11.74,5.9A49,49,0,0,0,27.3,97a53.92,53.92,0,0,0,8.62.61c8,.14,16.34.22,23.58-3.22,2.08-1,4.27-2.68,4.19-5-.08-2.62-2.95-4.12-5.4-5.06,5.22-.78,9.5-4.82,11.88-9.53a29.52,29.52,0,0,0,2.1-5.6l.7.55C75.12,77.26,75.67,84.3,75.83,91.91Z"/><path class="cls-6" d="M38.26,72.34l-10.58,4-17.4-7.9a13.3,13.3,0,0,0-2.56,4.55,50.29,50.29,0,0,1,10.53,3.71,53.69,53.69,0,0,1,4.83,2.62c.84.52,2.64,2.23,3.69,2.1a2.33,2.33,0,0,0,.88-.39c9.67-6.23,16.78-6.5,28.12-4.47l-5.32-3.1Z"/><path class="cls-3" d="M55.46,113l1.64-3.9a6.85,6.85,0,0,0,.49-3.41,13.4,13.4,0,0,1-6.27,5.7l-3.23,1.41,2.08-2.85a4.2,4.2,0,0,0,.76-2.22,8.37,8.37,0,0,1-5.46,2,8.67,8.67,0,0,1-4.69-1.2c.24,1.16.25,2.2-.65,2.61l-.4.19-.4-.19a31.48,31.48,0,0,1-7.15-4.35,3.83,3.83,0,0,0,.89,2l2.06,1.81-2.74-.14c-4.06-.21-7.43-4-9.23-7.42h0a11.74,11.74,0,0,1-9.79-5.55l-.1.1-.49.49-.61-.31c-3-1.55-5.21-5-6.14-9.84-1.37-7,.19-15.54,3.54-19.38A1,1,0,0,1,11,69.75C8,73.19,6.62,81,7.89,87.51c.73,3.76,2.27,6.57,4.36,8a1.28,1.28,0,0,0,0-.55l1.83-.53a9.83,9.83,0,0,0,9.61,6.59l.64,0,.28.58a12.84,12.84,0,0,0,6,6.4,18,18,0,0,1-.7-3.78l-.27-2.8,1.92,2.07a24.83,24.83,0,0,0,7.39,5.31c-.08-.35-.17-.72-.24-1a5.45,5.45,0,0,1-.3-2.27l.49-2.26,1.24,2a6.06,6.06,0,0,0,5.34,2.57A6.07,6.07,0,0,0,50.67,105l1-1.63.74,1.74a6,6,0,0,1,.43,3.14,11.56,11.56,0,0,0,4.05-5.69l.7-2.25,1.06,2.1a8.88,8.88,0,0,1,.93,3.94,18.82,18.82,0,0,0,3.6-7.54l.3-1.38,1.16.79a10.56,10.56,0,0,1,2.54,2.45A25.53,25.53,0,0,0,72.46,89.4l.36-1.88L75,90c.46-8-.71-14.49-3.64-20.35a1,1,0,1,1,1.6-1,1.14,1.14,0,0,1,.1.19C76.46,75.5,77.62,83,76.77,92.36l-.2,2.18-2.66-3A27.07,27.07,0,0,1,67.72,103l-.91,1-.63-1.17a8.47,8.47,0,0,0-1.57-2,20.67,20.67,0,0,1-6,9.42Z"/><path class="cls-1" d="M34.61,90.67a2.16,2.16,0,0,1-2.16-2.15V80.3a2.16,2.16,0,0,1,2.16-2.15h15A2.15,2.15,0,0,1,51.8,80.3v8.22a2.15,2.15,0,0,1-2.15,2.15"/><path class="cls-2" d="M52.17,81.2v2.54a2.16,2.16,0,0,0-2-1.29H35.14A2.15,2.15,0,0,0,33,84.6v5.67a2,2,0,0,1-.18-.84V81.2A2.16,2.16,0,0,1,35,79.05H50A2.14,2.14,0,0,1,52.17,81.2Z"/><path class="cls-3" d="M42,77.9c1.56,0,3.07,0,4.54,0l2.15,0h1.15a3.21,3.21,0,0,1,1.39.51,3.12,3.12,0,0,1,1.38,2.37v.55l0,.5c0,.31,0,.62,0,.92,0,1.19-.08,2.31-.13,3.33s-.1,1.93-.16,2.74c0,.1,0,.2,0,.3v.15a1.28,1.28,0,0,1,0,.17,3.17,3.17,0,0,1-.16.66,2.55,2.55,0,0,1-.66.93,2.07,2.07,0,0,1-1.37.56,1,1,0,0,1-.38-.05c-.08,0-.12-.07-.12-.11s0-.07.11-.11l.3-.15a2.36,2.36,0,0,0,.86-.71,1.94,1.94,0,0,0,.29-.68,1.42,1.42,0,0,0,0-.41v-.11a.76.76,0,0,0,0-.15c0-.09,0-.19,0-.3-.06-.8-.11-1.72-.16-2.74s-.09-2.14-.13-3.33c0-.3,0-.61,0-.92V81a1.2,1.2,0,0,0-.58-.88,1.13,1.13,0,0,0-.51-.16h-.95l-2.16,0c-1.46,0-3,0-4.53,0S39,80,37.54,80l-2.19,0h-1a1.14,1.14,0,0,0-.51.17,1.2,1.2,0,0,0-.58.88v.86c0,.31,0,.61,0,.91,0,1.2-.08,2.32-.13,3.33S33,88.07,33,88.88c0,.1,0,.2,0,.3v.26a1.35,1.35,0,0,0,0,.4,1.91,1.91,0,0,0,.29.69,2.28,2.28,0,0,0,.86.71l.3.14c.07,0,.11.08.11.12s0,.07-.12.1a.82.82,0,0,1-.38.06,2.16,2.16,0,0,1-1.38-.57,2.56,2.56,0,0,1-.65-.94,2.5,2.5,0,0,1-.17-.65c0-.06,0-.13,0-.18l0-.14c0-.1,0-.2,0-.3-.05-.81-.11-1.73-.15-2.75s-.1-2.13-.13-3.33c0-.3,0-.6,0-.91,0-.15,0-.31,0-.47v-.55A3.14,3.14,0,0,1,34.25,78h1.14l2.15,0C39,77.91,40.49,77.9,42,77.9Z"/><path class="cls-3" d="M12.62,73.48a7.89,7.89,0,0,0,.11,2,8.54,8.54,0,0,0,.63,2,9,9,0,0,1-1.21-1.78,9.2,9.2,0,0,1-.74-2.1,9.65,9.65,0,0,1-.21-2.27,11.11,11.11,0,0,1,.09-1.16,7.22,7.22,0,0,1,.25-1.21l2.21,1a5,5,0,0,0-.43.78c-.13.29-.24.59-.34.89A8.82,8.82,0,0,0,12.62,73.48Z"/><path class="cls-3" d="M15.92,75.29a9.42,9.42,0,0,0,1.88,4.5,10,10,0,0,1-3.06-4.21,8.56,8.56,0,0,1-.49-2.75,7.74,7.74,0,0,1,.56-2.89l2.12,1.14A6.14,6.14,0,0,0,15.92,75.29Z"/><path class="cls-3" d="M21.93,76.48a10.7,10.7,0,0,0,1.45,4.31,11.42,11.42,0,0,1-2.62-4,11.92,11.92,0,0,1-.81-5l2.37.41A10.16,10.16,0,0,0,21.93,76.48Z"/><path class="cls-3" d="M61,75.61A5.59,5.59,0,0,1,61,77.48c-.1.47-.26.75-.42.74s-.42-1.15-.6-2.48-.29-2.44,0-2.54c.14,0,.36.18.58.62A5.57,5.57,0,0,1,61,75.61Z"/><path class="cls-3" d="M65.82,74.36a7.59,7.59,0,0,1-.51,2.58c-.25.64-.52,1-.66.91-.29-.11,0-1.64.09-3.52s-.21-3.43.09-3.52c.14,0,.39.3.62,1A7.62,7.62,0,0,1,65.82,74.36Z"/><path class="cls-3" d="M70.85,73.58a10.69,10.69,0,0,1,.11,2,9.34,9.34,0,0,1-.19,1.58c-.19.89-.45,1.4-.58,1.37-.32-.06,0-2.2-.41-4.76s-1.21-4.54-.92-4.69c.12-.06.51.36.93,1.16a10,10,0,0,1,.62,1.47A11.26,11.26,0,0,1,70.85,73.58Z"/><path class="cls-3" d="M14.48,95.29a8.62,8.62,0,0,1-.05-1.83,7.32,7.32,0,0,1,.11-.8,5.48,5.48,0,0,1,.17-.67c.25-.81.57-1.25.7-1.2s.1.56.05,1.34c0,.19,0,.41,0,.64v.72a15.28,15.28,0,0,0,.13,1.65c.08.54.2,1.08.33,1.61.08.24.14.48.22.69s.14.42.21.61c.26.73.45,1.2.32,1.3s-.54-.25-1-1a4.48,4.48,0,0,1-.35-.6c-.12-.23-.23-.48-.33-.73A8.88,8.88,0,0,1,14.48,95.29Z"/><path class="cls-3" d="M21.29,98.23a10.79,10.79,0,0,1,0-3c.1-.75.24-1.2.39-1.2s.27.47.37,1.2.17,1.73.32,2.8c.08.53.18,1,.28,1.48.06.22.1.44.17.64a2.45,2.45,0,0,0,.08.29l.09.26c.21.66.4,1.09.27,1.19s-.52-.2-1-.85l-.16-.26c-.06-.09-.1-.19-.16-.3s-.2-.44-.29-.67A9,9,0,0,1,21.29,98.23Z"/><path class="cls-3" d="M29.41,99.65c-.9-3.19-1-5.87-.73-5.91s.89,2.52,1.77,5.62,1.68,5.59,1.4,5.71S30.29,102.83,29.41,99.65Z"/><path class="cls-3" d="M53.36,102.23c.4-1.34.68-2.6.93-3.51s.46-1.47.61-1.45.2.62.15,1.57a17.08,17.08,0,0,1-.65,3.7,13.22,13.22,0,0,1-.78,1.95,8,8,0,0,1-.47.8c-.08.12-.15.24-.23.35l-.24.3c-.64.77-1.16,1.09-1.26,1s.2-.61.62-1.42l.16-.32.17-.35c.12-.23.21-.5.34-.77C52.93,103.52,53.16,102.9,53.36,102.23Z"/><path class="cls-3" d="M59.68,99.81c.28-1.63.42-3.16.64-4.26s.38-1.78.53-1.77.23.71.23,1.83a26.87,26.87,0,0,1-.33,4.39,13,13,0,0,1-.65,2.39,9.42,9.42,0,0,1-.94,1.81c-.67,1-1.28,1.37-1.38,1.27s.27-.68.71-1.65a13.8,13.8,0,0,0,.66-1.76A19.34,19.34,0,0,0,59.68,99.81Z"/><path class="cls-3" d="M66.08,95.73c.31-1.32.53-2.54.73-3.44s.39-1.44.54-1.43.23.59.21,1.52A16.35,16.35,0,0,1,67.12,96a12.13,12.13,0,0,1-.64,1.93,6.63,6.63,0,0,1-.4.8,4.05,4.05,0,0,1-.21.35l-.21.31c-.55.79-1,1.15-1.14,1.07s.13-.61.47-1.43c0-.1.09-.21.13-.32s.09-.23.14-.35.18-.51.28-.78C65.74,97,65.91,96.39,66.08,95.73Z"/><path class="cls-3" d="M68.24,93.74c.34-.84.62-1.65.85-2.4q.16-.57.3-1.08c.09-.34.17-.66.23-1,.27-1.16.41-1.91.57-1.91s.27.78.19,2a10.19,10.19,0,0,1-.11,1c-.06.36-.13.75-.21,1.15a16.24,16.24,0,0,1-2.06,5c-.22.34-.44.67-.66,1l-.64.8c-.82.94-1.46,1.39-1.56,1.29s.31-.74,1-1.75c.16-.25.33-.53.5-.84s.36-.63.55-1A23.59,23.59,0,0,0,68.24,93.74Z"/><path class="cls-8" d="M8.78,77.39c.16-.77.58-1.31.87-1.23s.34.73.19,1.45-.45,1.27-.75,1.25S8.62,78.16,8.78,77.39Z"/><path class="cls-8" d="M9.05,85.76a11.23,11.23,0,0,1-.4-3.16c0-.81.17-1.31.31-1.31.31,0,.52,1.92,1.14,4.19s1.4,4,1.14,4.18-.5-.28-.94-1A10.77,10.77,0,0,1,9.05,85.76Z"/><path class="cls-3" d="M27.7,77.17h-.1A4.77,4.77,0,0,1,25,76l0,0a33.26,33.26,0,0,0-14.44-6.25,1,1,0,0,1-.77-1.11,1,1,0,0,1,1.09-.77A35.23,35.23,0,0,1,26.08,74.4l0,0a3.31,3.31,0,0,0,1.55.82,3.19,3.19,0,0,0,1.61-.72l.16-.11a22.06,22.06,0,0,1,11.91-3.3h0a22,22,0,0,1,11.91,3.3l.16.11a3.19,3.19,0,0,0,1.61.72,3.18,3.18,0,0,0,1.55-.82l0,0A35.28,35.28,0,0,1,71.9,67.79a1,1,0,0,1,.32,1.88,33.31,33.31,0,0,0-14.44,6.25l0,0a4.77,4.77,0,0,1-2.64,1.21,4.68,4.68,0,0,1-2.72-1l-.16-.1c-6.09-4-15.64-4-21.73,0l-.16.1A4.92,4.92,0,0,1,27.7,77.17Z"/><path class="cls-3" d="M41.46,67.55a.74.74,0,0,1-.74-.74V56.92a.74.74,0,1,1,1.48,0v9.89A.74.74,0,0,1,41.46,67.55Z"/><path class="cls-2" d="M44.4,41.3a5.93,5.93,0,0,0,.88,5c1.29,1.49,3.32,1.18,5.07,1.11a21.68,21.68,0,0,1,6.37.65c1.7.42,3.21,1.47,4.94,1.77,1.89.33,2.33-.68,1.07-2.06a19.3,19.3,0,0,0-5.61-4.3,25.24,25.24,0,0,0-12.65-2.19"/><path class="cls-6" d="M44.6,39a5.91,5.91,0,0,0,.88,4.94c1.28,1.49,3.32,1.18,5.07,1.11a21.71,21.71,0,0,1,6.37.65c1.69.43,3.21,1.47,4.93,1.77,1.9.33,2.34-.68,1.08-2.06a19.48,19.48,0,0,0-5.61-4.3,25.24,25.24,0,0,0-12.65-2.19"/><path class="cls-3" d="M62.51,48.27a4.13,4.13,0,0,1-.78-.08,12.18,12.18,0,0,1-2.89-1,14.36,14.36,0,0,0-2.1-.79,21.32,21.32,0,0,0-6.16-.64l-.57,0c-1.65.09-3.71.21-5.09-1.39s-1.4-4-1-5.6a.74.74,0,0,1,.25-.4.72.72,0,0,1,.48-.24,25.84,25.84,0,0,1,13,2.25,20.24,20.24,0,0,1,5.85,4.47c1.16,1.28.95,2.15.73,2.56A1.78,1.78,0,0,1,62.51,48.27Zm-11-4a23,23,0,0,1,5.59.7,15.9,15.9,0,0,1,2.33.87,11.58,11.58,0,0,0,2.55.89,1.76,1.76,0,0,0,.91,0,2,2,0,0,0-.51-.83A18.65,18.65,0,0,0,57,41.78a24.57,24.57,0,0,0-11.77-2.17,5,5,0,0,0,.8,3.84c.91,1,2.36,1,3.89.88l.59,0,1,0Z"/><path class="cls-2" d="M38.85,39.55A5.91,5.91,0,0,1,38,44.49C36.68,46,34.65,45.67,32.9,45.6a21.68,21.68,0,0,0-6.37.65c-1.7.42-3.22,1.47-4.94,1.77-1.89.33-2.34-.68-1.08-2.06a19.48,19.48,0,0,1,5.62-4.3,25.18,25.18,0,0,1,12.64-2.19"/><path class="cls-6" d="M37.84,37.29a5.93,5.93,0,0,1-.88,5c-1.29,1.49-3.32,1.18-5.07,1.11a21.68,21.68,0,0,0-6.37.65c-1.7.42-3.21,1.47-4.94,1.77-1.89.33-2.33-.68-1.07-2.06a19.3,19.3,0,0,1,5.61-4.3,25.22,25.22,0,0,1,12.65-2.19"/><path class="cls-3" d="M19.93,46.57a1.75,1.75,0,0,1-1.7-.81c-.22-.4-.43-1.27.73-2.54a20.07,20.07,0,0,1,5.85-4.47,25.83,25.83,0,0,1,13-2.26.68.68,0,0,1,.47.24.66.66,0,0,1,.25.4,6.67,6.67,0,0,1-1,5.6c-1.38,1.59-3.44,1.48-5.09,1.39l-.57,0a20.91,20.91,0,0,0-6.15.64,13.41,13.41,0,0,0-2.11.79,12.48,12.48,0,0,1-2.89,1A3.42,3.42,0,0,1,19.93,46.57ZM19.54,45a2,2,0,0,0,.91,0A11.58,11.58,0,0,0,23,44.15a14.83,14.83,0,0,1,2.33-.87,22.81,22.81,0,0,1,6.58-.68l.59,0c1.53.09,3,.17,3.89-.88a5,5,0,0,0,.8-3.83,24.53,24.53,0,0,0-11.76,2.17,18.65,18.65,0,0,0-5.38,4.13A1.89,1.89,0,0,0,19.54,45Z"/><path class="cls-7" d="M72.24,51.73C71,42,64.78,32,59.9,25.56l-1.49-1.12L71.14,24A58.63,58.63,0,0,1,72.24,51.73Z"/><path class="cls-8" d="M52.93,25.63a8.15,8.15,0,0,1,1.46.77,6,6,0,0,1,1,.85c.54.55.74,1,.59,1.18s-.61,0-1.25-.24l-1.1-.49c-.4-.18-.85-.37-1.33-.56L51,26.63l-1.13-.4c-.65-.25-1.08-.46-1.06-.69s.47-.42,1.24-.45a5.92,5.92,0,0,1,1.33.09A8.32,8.32,0,0,1,52.93,25.63Z"/><path class="cls-6" d="M19.56,28.17c6.2-1,12.39.7,18.46,1.91a42.71,42.71,0,0,0,18.25-.16C64.42,28.05,75,24,78.91,14.83A14.22,14.22,0,0,0,79.57,13c-4.33,3.1-10,2.68-14.79.64s-9-5.47-13.47-8.31S41.83.18,36.74.76,26.61,4.55,22.87,8.19a16.75,16.75,0,0,0-3.45,4.68c-.75,1.57-.89,3.86-2.18,5A8,8,0,0,1,15.12,19c-3.28,1.58-4.48,6.15-5,10.18a93.35,93.35,0,0,0,.4,25"/><path class="cls-3" d="M73,52.4a.85.85,0,0,1-.23,0,1,1,0,0,1-.69-1.16h0c2.43-9.41,1.15-17.63-1.51-27.09a1,1,0,0,1,1.83-.56v0c2.74,9.76,4,18.27,1.52,28.09A1,1,0,0,1,73,52.4Z"/><path class="cls-7" d="M18,31c0,.34,0,.68,0,1l-2,5.84-.66,2c-.67,1.24-1.38,2.48-2,3.73s-.65,2.45-1.12,3.73A28.2,28.2,0,0,0,10.8,52.1c-.42-2.2-1.27-4.39-1.53-6.61a6.56,6.56,0,0,0,2-3.5,19.27,19.27,0,0,0,.37-4.43A7.45,7.45,0,0,1,13.23,41l0-.15c.58-2.78,1-5.59,1.37-8.41q.22.42.42.87a15.66,15.66,0,0,1,.6,2.1,1.92,1.92,0,0,1,0-.22q.45-3.28.59-6.61A10.16,10.16,0,0,1,18,31Z"/><path class="cls-7" d="M71.72,23.48a33.2,33.2,0,0,1-6.53,3.4l-1.41.53c-1,.36-2,.69-3.06,1-1.82.53-3.62,1-5.32,1.3a48.86,48.86,0,0,1-18.24.14c-3.26-.57-6.54-1.26-9.85-1.65h0l-7.94.17a2.13,2.13,0,0,0,0,.25l-.22,0-.36.9h0l-.24.6c0-.34.07-.67.08-1a12.31,12.31,0,0,0-.08-1.72l7.55-.16a20.82,20.82,0,0,1-2.94.42h.31a15.56,15.56,0,0,0,3-.42h0a37.89,37.89,0,0,0,6.92-2.74c-.25.75-.84,2.17-1.58,2.46,2.91.17,5-.54,7.88-1.15A6.49,6.49,0,0,1,37.07,28L37,28h.36l.11-.06a11.06,11.06,0,0,0,1.36-1L38,28.24h0a21.72,21.72,0,0,0,9.4-.94l1.14-.37,1.22-.17a13.81,13.81,0,0,1-1.82,1,7.82,7.82,0,0,1-2.09,1c.29,0,.74.45,1,.42C49,29,51,28.11,53.1,27.63c.72-.16,1.6-.49,2.33-.66s2.57-.79,3.18-1l-.26.62.77,0-.45-.13-.63.64s-.19.33-.16.32c3.56-1,10-3,13.5-4.28h.23C71.64,23.22,71.68,23.35,71.72,23.48Z"/><path class="cls-3" d="M10.41,55.22a.79.79,0,0,1-.3,0,.94.94,0,0,1-.6-1.2l8.67-25.89a1,1,0,0,1,1.82.61L11.32,54.57A1,1,0,0,1,10.41,55.22Z"/><path class="cls-8" d="M11.39,30.73a2.5,2.5,0,0,1,.82-1.08c.3-.21.58-.26.76-.13a.76.76,0,0,1,.22.73,4.4,4.4,0,0,1-.88,2.1.78.78,0,0,1-.67.36c-.22-.05-.39-.28-.44-.64A2.46,2.46,0,0,1,11.39,30.73Z"/><path class="cls-8" d="M15.55,26.37c.62-.29,1.28-.19,1.46.21s-.15,1-.77,1.26S15,28,14.78,27.63,14.94,26.66,15.55,26.37Z"/><path class="cls-8" d="M18.38,23.31c.44-.94,1.06-1.64,1.48-1.49s.48,1.14,0,2.18-1.29,1.65-1.67,1.42S17.94,24.26,18.38,23.31Z"/><path class="cls-3" d="M15,14.81a11.66,11.66,0,0,0-2-2c-.58-.42-1-.61-1.09-.5s1,1.48,2.3,3.11l.57.69A4.09,4.09,0,0,0,13.35,16c-.43,0-.67.17-.68.31s.21.28.57.42l1.34.5c.52.19,1,.37,1.34.49l.16.05c.36.4.62.62.73.55s0-.51-.3-1.16A11.72,11.72,0,0,0,15,14.81Z"/><path class="cls-3" d="M40.28,25.7l-.4.22-.5.31-.28.17-.3.19-.62.4-.32.21-.17.1-.16.1c-.22.14-.45.27-.68.39l-.68.35-.17.07-.18.08-.34.14c-.22.08-.44.17-.66.23l-.32.09-.3.08-.29.07-.26,0L33.2,29l-.3,0h-.11l.09.07.26.17a3.68,3.68,0,0,0,.45.21l.29.09.32.07a2.2,2.2,0,0,0,.37.05l.39,0a4.88,4.88,0,0,0,.85-.07,3.29,3.29,0,0,0,.43-.09l.22-.06.21-.08a5.76,5.76,0,0,0,.85-.37,9.06,9.06,0,0,0,.77-.49l.18-.14.16-.14A3,3,0,0,0,39,28a7.67,7.67,0,0,0,.56-.58c.08-.1.15-.2.23-.29l.2-.28c.13-.19.23-.36.32-.52a2.72,2.72,0,0,0,.21-.42c.05-.13.1-.21.13-.28l0-.11-.1.05Z"/><path class="cls-3" d="M49.25,27l-.44.2-.56.26-.32.15-.33.15-.7.35-.38.17a.66.66,0,0,1-.19.09l-.19.1c-.25.12-.52.23-.77.36s-.52.25-.78.36l-.2.09-.19.08-.37.17c-.26.11-.49.23-.73.32s-.23.1-.33.16l-.32.14-.56.26-.45.21-.28.15-.1,0,.11,0,.32.05A4.07,4.07,0,0,0,42,31h.64l.37,0,.39-.05c.27,0,.54-.09.83-.15a3.45,3.45,0,0,0,.43-.12l.21-.06.21-.08a7.12,7.12,0,0,0,.87-.34c.29-.14.56-.28.83-.44l.2-.12.19-.12.37-.26c.23-.18.46-.35.65-.53l.29-.27.25-.27a3.89,3.89,0,0,0,.41-.5,3.69,3.69,0,0,0,.29-.4l.16-.28.06-.11-.11,0Z"/><path class="cls-3" d="M60.6,24.34l-.44.35-.27.21-.3.24-.32.25-.34.27c-.23.19-.48.37-.73.57l-.39.29-.2.15-.2.15c-.27.21-.55.39-.82.59s-.56.39-.84.57l-.21.14-.21.14-.41.26c-.27.17-.53.35-.78.5l-.37.23c-.11.08-.23.14-.35.22l-.32.21-.29.18-.48.3a3.17,3.17,0,0,0-.31.21l-.11.08h.5a5.42,5.42,0,0,0,.58-.06l.36-.05.38-.09.42-.1.44-.13a6.34,6.34,0,0,0,.93-.36l.47-.22.24-.12.24-.13c.32-.17.62-.38.93-.58a8.3,8.3,0,0,0,.86-.68l.22-.18.19-.18.38-.37c.23-.25.45-.5.64-.75l.28-.37c.09-.12.16-.24.24-.35l.21-.34.17-.31c.09-.17.17-.35.25-.53L61,24.2l0-.13-.11.08A1.72,1.72,0,0,0,60.6,24.34Z"/><path class="cls-3" d="M15.93,35.69a1.48,1.48,0,0,0,0-.21c0-.14,0-.28-.05-.41s0-.27-.07-.4-.05-.25-.08-.37-.07-.23-.1-.35a2.85,2.85,0,0,0-.12-.31c0-.11-.08-.2-.12-.29a2,2,0,0,0-.13-.25,4,4,0,0,0-.23-.39l-.17-.23-.06-.08,0,.1.08.27a3.07,3.07,0,0,1,.1.43c0,.08,0,.16.06.26s0,.18,0,.29,0,.21.05.31,0,.21,0,.34l0,.35c0,.12,0,.24,0,.37v.78c0,.13,0,.27,0,.4s0,.27,0,.41,0,.54-.07.8l0,.2,0,.2c0,.13,0,.26-.05.39s-.07.5-.11.74,0,.23-.05.34,0,.21,0,.32-.05.4-.08.57,0,.32-.06.44,0,.21,0,.28a.29.29,0,0,0,0,.11l0-.09.13-.26.18-.41c.07-.16.15-.33.22-.53l.11-.32c0-.1.07-.22.11-.33s.14-.49.21-.74l.09-.4,0-.21,0-.22a7.71,7.71,0,0,0,.1-.84,3.17,3.17,0,0,0,0-.43,2.94,2.94,0,0,0,0-.42Z"/><path class="cls-3" d="M13.35,40.57l0-.2-.06-.2-.12-.38a5.93,5.93,0,0,0-.31-.68c-.06-.11-.11-.22-.17-.31l-.18-.27a4.82,4.82,0,0,0-.35-.44,3,3,0,0,0-.3-.31l-.22-.18-.07-.06,0,.09a2.2,2.2,0,0,1,.13.24c.06.1.12.23.19.37a3.79,3.79,0,0,1,.21.49l.12.28c0,.1.07.2.1.31s.14.42.2.66.05.24.08.36,0,.12,0,.18l0,.18c.05.25.08.5.11.76s0,.5,0,.76v.19a.54.54,0,0,1,0,.18V43c0,.12,0,.24,0,.35l0,.34c0,.11,0,.22,0,.33s0,.21-.05.3-.06.37-.1.53-.06.3-.09.41l-.06.27a.32.32,0,0,0,0,.09l.06-.07c0-.06.09-.13.15-.23a3.9,3.9,0,0,0,.22-.38,4,4,0,0,0,.23-.51,2.68,2.68,0,0,0,.12-.3,3.18,3.18,0,0,0,.1-.33l.09-.36c0-.12.05-.25.07-.38s0-.26,0-.39,0-.14,0-.2v-.22a7.73,7.73,0,0,0,0-.83C13.45,41.11,13.4,40.84,13.35,40.57Z"/><path class="cls-3" d="M72.26,28.66c-.12-.07-.5.3-.94,1-.11.2-.22.4-.32.61s-.21.46-.32.72a13.32,13.32,0,0,0-.51,1.74,10.79,10.79,0,0,0-.21,1.8v.79A4.65,4.65,0,0,0,70,36c.12.84.32,1.32.46,1.31.3,0,.21-2,.71-4.37S72.52,28.81,72.26,28.66Z"/><path class="cls-3" d="M70.59,16.18l.23-.24c.27-.29.39-.47.35-.52s-.36.09-.86.38c0,0,0-.07,0-.09s-.69.1-1.69.4l-.82.24-.95.24c-.67.15-1.41.28-2.2.38a19.59,19.59,0,0,1-2.22.14h-1c-.31,0-.59,0-.85,0-1.05-.07-1.7-.13-1.74,0s.57.42,1.64.67c.29.07.59.12.88.16a10.28,10.28,0,0,0,1,.1,14.2,14.2,0,0,0,2.35-.07A14,14,0,0,0,67,17.48a22.2,22.2,0,0,1-2.72.9,21.3,21.3,0,0,1-2.85.52c-.44,0-.86.08-1.26.09-.2,0-.39,0-.57,0h-.54c-1.35,0-2.2-.08-2.23.06s.18.16.56.29l.31.09.38.09a7.65,7.65,0,0,0,.94.15l.56.06c.19,0,.39,0,.6,0,.42,0,.86,0,1.32,0a16.21,16.21,0,0,0,3-.46,17.16,17.16,0,0,0,2.86-1,10.6,10.6,0,0,0,1.17-.64l.51-.31.46-.32a8.45,8.45,0,0,0,.75-.59Z"/><path class="cls-3" d="M54.87,12l.52-.32.45-.32c.26-.18.51-.38.75-.58s.21-.18.29-.26l.23-.24c.27-.29.4-.47.36-.52s-.36.09-.87.38q0-.06,0-.09c-.07-.13-.7.1-1.7.4l-.82.24-1,.24c-.66.15-1.41.28-2.19.38a19.88,19.88,0,0,1-2.22.14h-1c-.3,0-.59,0-.85,0-1-.07-1.69-.13-1.74,0s.58.42,1.65.67a8.76,8.76,0,0,0,.88.16l1,.1a14.29,14.29,0,0,0,2.36-.07,15.35,15.35,0,0,0,2.22-.46,23.3,23.3,0,0,1-2.71.91,22.82,22.82,0,0,1-2.86.51c-.44,0-.86.08-1.26.09-.2,0-.39,0-.57,0h-.53c-1.36,0-2.21-.08-2.24.06s.18.16.56.29l.32.09.38.09a7.36,7.36,0,0,0,.94.15l.55.06c.19,0,.39,0,.6,0,.42,0,.85,0,1.33,0a16.23,16.23,0,0,0,3-.46,17.16,17.16,0,0,0,2.86-1C54.12,12.36,54.52,12.17,54.87,12Z"/><path class="cls-3" d="M41.42,6.54l.23-.14.5-.31.25-.16.13-.08.13-.09.53-.34.52-.35L43.84,5,44,4.9l.25-.18.48-.33.21-.16.21-.15.38-.28.29-.24A1.64,1.64,0,0,0,46,3.4l0,0h0l.37-.11.13,0-.13,0a2.48,2.48,0,0,0-.38-.1L45.45,3l-.77-.07h-.44a3.93,3.93,0,0,0-.48,0c-.34,0-.68,0-1,.1l-.53.1-.28.06-.27.07a10.52,10.52,0,0,0-1.08.36,7.66,7.66,0,0,0-1,.5l-.25.15-.24.15c-.15.11-.31.21-.45.33a6.74,6.74,0,0,0-.78.73l-.16.19-.15.2c-.09.12-.18.25-.26.38A2.71,2.71,0,0,0,37,6.6L37,6.77a1.27,1.27,0,0,0-.06.18,3,3,0,0,0-.18.58,2.6,2.6,0,0,0-.05.39v.13l.08-.1c.06-.07.13-.17.24-.29l.38-.43.11-.11L37.6,7l.28-.25.31-.25.17-.12.18-.13c.23-.16.5-.32.77-.48l.42-.23.21-.11.23-.11c.3-.15.61-.28.93-.41l.74-.28h0l-.13.12-.13.11-.24.24a5,5,0,0,0-.42.5l-.17.24a1.58,1.58,0,0,0-.15.24,3.55,3.55,0,0,0-.21.44,2.13,2.13,0,0,0-.14.35c0,.11-.06.19-.07.24l0,.09.08,0,.23-.11.32-.17.4-.23Z"/><path class="cls-3" d="M22.82,16.74c0-.11-.05-.23-.07-.37l-.1-.45-.06-.25c0-.09,0-.17-.07-.27s-.09-.37-.15-.56-.05-.19-.08-.29a.83.83,0,0,0,0-.15l0-.15c-.06-.2-.11-.4-.17-.6L21.86,13l0-.14-.05-.15a2.46,2.46,0,0,0-.09-.29c-.05-.19-.12-.38-.17-.56l-.09-.26-.09-.25L21.17,11,21,10.61l-.1-.23,0,0V9.78l-.08.11-.21.33a3.69,3.69,0,0,0-.27.53q-.15.32-.3.72a4.13,4.13,0,0,0-.14.42c-.05.15-.09.3-.13.46a10,10,0,0,0-.2,1c0,.17-.05.35-.06.54v.27a2.62,2.62,0,0,1,0,.28,8.83,8.83,0,0,0,0,1.15,7.44,7.44,0,0,0,.18,1.15l.06.28.08.27.18.53a7.1,7.1,0,0,0,.47,1l.13.21.15.2a4.57,4.57,0,0,0,.29.36,4.11,4.11,0,0,0,.29.3l.14.13.15.12a3.22,3.22,0,0,0,.86.51l.12.05-.07-.12c-.05-.07-.13-.17-.22-.31s-.18-.29-.28-.49L22,19.61l-.07-.16a2.67,2.67,0,0,1-.15-.34c-.05-.12-.11-.24-.15-.37l-.07-.19-.07-.22c-.09-.27-.16-.57-.23-.88,0-.15-.06-.31-.1-.47l0-.23c0-.08,0-.16,0-.24,0-.33-.08-.67-.11-1s0-.53-.05-.8h0l.07.16L21,15c.06.1.11.21.16.3s.23.36.35.54l.18.23.19.22a3.89,3.89,0,0,0,.36.34,3.15,3.15,0,0,0,.3.24l.22.14.07,0V17C22.87,16.92,22.83,16.84,22.82,16.74Z"/><path class="cls-3" d="M33.45,6.38l.13-.17.13-.16.54-.66c.17-.23.35-.45.53-.67l.12-.16L35,4.39a4.08,4.08,0,0,0,.25-.33c.17-.21.32-.42.48-.63s.15-.22.21-.3l.21-.29.36-.52.28-.42c.08-.12.13-.22.17-.29l0-.05,0,0,.43-.29.15-.11h-.19l-.52,0-.8.11c-.31.06-.66.14-1,.24l-.57.17-.61.22a12.63,12.63,0,0,0-1.27.56L32,2.8,31.7,3l-.32.2a12.56,12.56,0,0,0-1.25.92A11.64,11.64,0,0,0,29,5.21c-.09.1-.18.19-.26.29l-.24.3c-.16.21-.31.41-.44.62a7.81,7.81,0,0,0-.69,1.27L27.23,8a2.83,2.83,0,0,0-.11.31c-.06.19-.12.39-.17.6a5,5,0,0,0-.1.56,2,2,0,0,1,0,.26c0,.09,0,.17,0,.25a4.61,4.61,0,0,0,0,.83,4.71,4.71,0,0,0,.09.52l0,.18.07-.17c.05-.12.09-.28.18-.48s.18-.44.32-.69l.09-.2.12-.22A4.78,4.78,0,0,1,28,9.34c.09-.15.18-.3.29-.45l.16-.23.18-.23a9.69,9.69,0,0,1,.79-.95L29.85,7l.24-.22.24-.24c.33-.31.68-.61,1-.91L32.21,5h0l-.13.2a2,2,0,0,0-.11.21l-.21.41a7.18,7.18,0,0,0-.32.81c0,.13-.09.26-.12.38s-.06.25-.09.37a5,5,0,0,0-.1.66,4.41,4.41,0,0,0,0,.52V9l.08-.08.25-.23.34-.36.43-.46a2.85,2.85,0,0,1,.23-.26l.24-.28c.16-.2.34-.4.5-.61Z"/><path class="cls-3" d="M40,88.24a25.33,25.33,0,0,1-4.08-.34.74.74,0,1,1,.21-1.47h.06c.06,0,6.5,1.15,9.51-1a3.3,3.3,0,0,0,1.41-2.28.74.74,0,0,1,1.48.14s0,0,0,.07a4.81,4.81,0,0,1-2,3.27C44.75,87.92,42.15,88.24,40,88.24Z"/><circle class="cls-9" cx="55.3" cy="55.36" r="1.12"/><circle class="cls-3" cx="52.16" cy="56.09" r="4.86"/><circle class="cls-1" cx="54.33" cy="52.47" r="2.69"/><path class="cls-8" d="M63.78,35.79c.28.51.29,1,0,1.17s-.7-.14-1-.65-.28-1,0-1.17S63.51,35.29,63.78,35.79Z"/><path class="cls-8" d="M65.83,40.28c.42.77.54,1.51.27,1.65s-.81-.37-1.22-1.14-.54-1.51-.27-1.65S65.42,39.51,65.83,40.28Z"/><path class="cls-2" d="M63.55,30.66a56.22,56.22,0,0,1-7.5,2.25,42.87,42.87,0,0,1-18.25.16C32.46,32,27,30.55,21.59,30.91c.39-.89.83-1.76,1.3-2.6l3.91-.09c2.26.26,4.5.71,6.74,1.18l.25.11.29.09.33.07a2.08,2.08,0,0,0,.36,0l.39,0h0c1.57.33,3.15.64,4.73.87.48.07,1,.14,1.45.19l-.1.06.11,0a1.65,1.65,0,0,0,.32.05,2.73,2.73,0,0,0,.5.05h.63l.36,0A49.76,49.76,0,0,0,62.1,28.55C62.6,29.23,63.07,29.93,63.55,30.66Z"/><path class="cls-3" d="M10.3,55.26a.94.94,0,0,1-.94-.82,93.9,93.9,0,0,1-.53-25.3c.78-5.92,2.6-9.49,5.55-10.9a7.44,7.44,0,0,1,.72-.31,3.93,3.93,0,0,0,1.16-.62,6.4,6.4,0,0,0,1.42-3,13.51,13.51,0,0,1,.85-2.3A23.43,23.43,0,0,1,33.74.41c8.55-1.81,15.24,2.67,21.7,7a59,59,0,0,0,9.37,5.48c5.23,2.21,10.29,2,13.86-.54l2.26-1.62-.79,2.66a16.41,16.41,0,0,1-.69,1.93C77.52,19.79,73,25.88,62.25,29.48a50.55,50.55,0,0,1-22.47,2.05c-2-.29-3.94-.71-5.85-1.1-5-1-9.67-2-14.55-1.21a1,1,0,1,1-.31-1.88c5.23-.87,10.32.19,15.25,1.22,1.88.39,3.83.8,5.74,1.08a48.35,48.35,0,0,0,21.58-2C67,25.86,74,22.24,77.38,15.23c-3.82,1.62-8.52,1.44-13.32-.59A60.94,60.94,0,0,1,54.37,9C48,4.69,41.89.63,34.13,2.27A21.79,21.79,0,0,0,20.22,12.91a12.36,12.36,0,0,0-.7,2,7.9,7.9,0,0,1-2,3.85,5.28,5.28,0,0,1-1.73,1c-.22.09-.42.17-.6.26-2.33,1.12-3.8,4.21-4.49,9.44a91.75,91.75,0,0,0,.52,24.79,1,1,0,0,1-.82,1.07Z"/><path class="cls-3" d="M72.91,54.3a1,1,0,0,1-1-.95c-.07-8.68-10.53-24.11-10.63-24.26A1,1,0,0,1,62.91,28c.44.65,10.89,16.07,11,25.33a1,1,0,0,1-.94,1Z"/><path class="cls-8" d="M69.5,50.75a24.56,24.56,0,0,1,.21,3c0,.46,0,.89,0,1.3s-.05.78-.09,1.12c-.17,1.38-.43,2.2-.57,2.18-.31,0,0-3.38-.59-7.43S66.72,43.71,67,43.58c.12,0,.59.67,1.12,2,.13.32.27.67.39,1.06s.26.8.38,1.24A24,24,0,0,1,69.5,50.75Z"/><circle class="cls-3" cx="30.94" cy="56.09" r="4.86"/><circle class="cls-1" cx="33.11" cy="52.47" r="2.69"/><circle class="cls-8" cx="28.99" cy="57.9" r="1.12"/><circle class="cls-8" cx="50.84" cy="57.9" r="1.12"/></g></g></g></svg>